<?xml version="1.0" encoding="utf-8"?>
<!-- Generator: Adobe Illustrator 21.1.0, SVG Export Plug-In . SVG Version: 6.00 Build 0)  -->
<svg version="1.1" id="Layer_1" xmlns="http://www.w3.org/2000/svg" xmlns:xlink="http://www.w3.org/1999/xlink" x="0px" y="0px"
	 viewBox="0 0 360 360" style="enable-background:new 0 0 360 360;" xml:space="preserve">
<style type="text/css">
	.st0{fill:#3399FF;}
	.st1{fill:#181A1C;}
	.st2{fill:#F9F9F9;}
	.st3{fill:#FFFFFF;}
	.st4{fill:#297CC1;}
</style>
<g>
	<rect x="0.5" y="0.5" class="st0" width="359" height="359"/>
	<path d="M359,1v358H1V1H359 M360,0H0v360h360V0L360,0z"/>
</g>
<g>
	<g>
		<path class="st0" d="M58.9,191c-1.4,0-2.5-1.1-2.5-2.5l0-9.8c0-1.4,1.1-2.5,2.5-2.5l0.4,0c1.4,0,2.5,1.1,2.5,2.5l0,9.8
			c0,1.4-1.1,2.5-2.5,2.5L58.9,191z"/>
		<path d="M59,175.8l0,1l0.4,0c0.5,0,1,0.2,1.4,0.6c0.4,0.4,0.6,0.9,0.6,1.4l0,9.8c0,1.1-0.9,2-2,2l-0.4,0c-1.1,0-2-0.9-2-2l0-9.8
			c0-1.1,0.9-2,2-2L59,175.8 M59,175.8c-1.6,0-3,1.3-3,3l0,9.8c0,1.6,1.3,3,3,3l0.4,0c0,0,0,0,0,0c1.6,0,3-1.3,3-3l0-9.8
			c0-1.6-1.3-3-3-3L59,175.8C59,175.8,59,175.8,59,175.8L59,175.8z"/>
	</g>
	<path class="st1" d="M88.6,131.9l-6.4,0c-0.9,0-1.7-0.8-1.7-1.7l0,0c0-0.9,0.8-1.7,1.7-1.7l6.4,0c0.9,0,1.7,0.8,1.7,1.7v0
		C90.3,131.1,89.6,131.9,88.6,131.9z"/>
	<path class="st1" d="M51.6,163l-0.2,44c0,0.8,0.4,1.4,0.8,1.4l84.9-0.2c0.5,0,0.8-0.6,0.8-1.4l0.2-36.2c0-0.8-0.4-1.4-0.8-1.4
		l-41.6-0.2c-0.5,0-0.8-0.6-0.8-1.4l0-4.6c0-0.8-0.4-1.4-0.8-1.4l-41.6-0.2C52,161.6,51.6,162.2,51.6,163z"/>
	<g>
		<path class="st2" d="M128.7,186.8l-22.8-0.1c-0.9,0-1.6-0.7-1.6-1.6l0-1.3c0-0.9,0.7-1.6,1.6-1.6l22.8,0.1c0.9,0,1.6,0.7,1.6,1.6
			l0,1.3C130.3,186.1,129.6,186.8,128.7,186.8z"/>
	</g>
	<g>
		<path class="st2" d="M128.7,191.9l-22.8-0.1c-0.9,0-1.6-0.7-1.6-1.6l0-1.3c0-0.9,0.7-1.6,1.6-1.6l22.8,0.1c0.9,0,1.6,0.7,1.6,1.6
			l0,1.3C130.3,191.1,129.6,191.9,128.7,191.9z"/>
	</g>
	<g>
		<path class="st2" d="M128.7,196.9l-22.8-0.1c-0.9,0-1.6-0.7-1.6-1.6l0-1.3c0-0.9,0.7-1.6,1.6-1.6l22.8,0.1c0.9,0,1.6,0.7,1.6,1.6
			l0,1.3C130.3,196.2,129.6,196.9,128.7,196.9z"/>
	</g>
	<g>
		<path class="st2" d="M128.6,202l-22.8-0.1c-0.9,0-1.6-0.7-1.6-1.6l0-1.3c0-0.9,0.7-1.6,1.6-1.6l22.8,0.1c0.9,0,1.6,0.7,1.6,1.6
			l0,1.3C130.3,201.3,129.5,202,128.6,202z"/>
	</g>
	<g>
		<path class="st2" d="M128.6,207.1l-22.8-0.1c-0.9,0-1.6-0.7-1.6-1.6l0-1.3c0-0.9,0.7-1.6,1.6-1.6l22.8,0.1c0.9,0,1.6,0.7,1.6,1.6
			l0,1.3C130.2,206.4,129.5,207.1,128.6,207.1z"/>
	</g>
	<path class="st3" d="M59.3,191.6l-0.4,0c-1.6,0-3-1.4-3-3l0-9.8c0-1.6,1.4-3,3-3l0.4,0c1.6,0,3,1.4,3,3l0,9.8
		C62.3,190.2,61,191.6,59.3,191.6z"/>
	<path class="st3" d="M88.4,191.7l-0.4,0c-1.6,0-3-1.4-3-3l0-9.8c0-1.6,1.4-3,3-3l0.4,0c1.6,0,3,1.4,3,3l0,9.8
		C91.4,190.3,90.1,191.7,88.4,191.7z"/>
	<path class="st3" d="M81,191.6l-0.4,0c-1.6,0-3-1.4-3-3l0-9.8c0-1.6,1.4-3,3-3l0.4,0c1.6,0,3,1.4,3,3l0,9.8
		C84,190.3,82.6,191.7,81,191.6z"/>
	<path class="st3" d="M66.8,191.6l-0.4,0c-1.6,0-3-1.4-3-3l0-9.8c0-1.6,1.4-3,3-3l0.4,0c1.6,0,3,1.4,3,3l0,9.8
		C69.8,190.2,68.4,191.6,66.8,191.6z"/>
	<path class="st1" d="M46.7,155l26.3-19c0.2-0.1,0.4-0.2,0.6,0l6.7,4.2c0.5,0.3,1.1-0.3,1.1-1.3l0-4.5c0-0.8,0.4-1.4,0.8-1.4l6.1,0
		c0.5,0,0.8,0.6,0.8,1.4l0,10.7c0,0.6,0.2,1,0.5,1.3l9.8,7.2c0.3,0.2,0.5,0.7,0.5,1.3l0,6.2c0,0.8,0.4,1.4,0.8,1.4l37.9,0.2
		c0.5,0,0.8,0.6,0.8,1.4l0,1.2c0,0.8-0.4,1.4-0.8,1.4l-39.6-0.2c-0.5,0-0.8-0.6-0.8-1.4l0-7.3c0-0.6-0.2-1.1-0.5-1.3l-24.1-16.5
		c-0.2-0.1-0.4-0.1-0.6,0l-25.7,18.5c-0.6,0.4-1.2-0.3-1.2-1.3l0-0.9C46.2,155.7,46.4,155.2,46.7,155z"/>
	<path class="st1" d="M51.4,158.8L73,143.3c0.2-0.2,0.4-0.2,0.7,0L95.6,159L51.4,158.8z"/>
	<path class="st1" d="M46.4,162.8l-2.7,0l-1.1,0c-0.4,0-0.8-0.4-0.8-0.9v0c0-0.5,0.4-0.9,0.8-0.9l3.8,0c0.4,0,0.8,0.4,0.8,0.9l0,0
		C47.2,162.4,46.9,162.8,46.4,162.8z"/>
	<path class="st1" d="M44.4,167.1l4,2.4c0.3,0.2,0.4,0.5,0.4,0.8l-0.2,37.2c0,0.5,0.4,0.9,0.8,0.9l0,0c0.4,0,0.8-0.4,0.8-0.9
		l0.2-38.4c0-0.3-0.2-0.6-0.4-0.8l-4-2.4c-0.3-0.2-0.4-0.5-0.4-0.8l0-2.1c0-0.5-0.4-0.9-0.8-0.9l0,0c-0.4,0-0.8,0.4-0.8,0.9l0,3.3
		C44,166.7,44.1,167,44.4,167.1z"/>
</g>
<g>
	<g>
		<path class="st0" d="M155.2,187.4l-1.7,0c-1.6,0-3-1.4-3-3l0.1-14.4c0-1.6,1.4-3,3-3l1.7,0c1.6,0,3,1.4,3,3l-0.1,14.4
			C158.2,186.1,156.9,187.4,155.2,187.4z"/>
	</g>
	<path class="st1" d="M189.6,110.3l-7.4,0c-1.2,0-2.2-1-2.2-2.2l0,0c0-1.2,1-2.2,2.2-2.2l7.4,0c1.2,0,2.2,1,2.2,2.2l0,0
		C191.8,109.4,190.8,110.3,189.6,110.3z"/>
	<path class="st1" d="M145.4,150.5l-0.3,56.9c0,1,0.4,1.8,1,1.8l101.8-0.3c0.6,0,1-0.8,1-1.8l0.2-46.7c0-1-0.4-1.8-1-1.8l-49.9-0.2
		c-0.6,0-1-0.8-1-1.8l0-5.9c0-1-0.4-1.8-1-1.8l-49.9-0.2C145.9,148.8,145.4,149.6,145.4,150.5z"/>
	<g>
		<path class="st2" d="M238.1,181.2l-28-0.1c-0.9,0-1.6-0.7-1.6-1.6l0-2.6c0-0.9,0.7-1.6,1.6-1.6l28,0.1c0.9,0,1.6,0.7,1.6,1.6
			l0,2.6C239.7,180.5,239,181.2,238.1,181.2z"/>
	</g>
	<g>
		<path class="st2" d="M238.1,187.8l-28-0.1c-0.9,0-1.6-0.7-1.6-1.6l0-2.6c0-0.9,0.7-1.6,1.6-1.6l28,0.1c0.9,0,1.6,0.7,1.6,1.6
			l0,2.6C239.7,187.1,239,187.8,238.1,187.8z"/>
	</g>
	<g>
		<path class="st2" d="M238.1,194.3l-28-0.1c-0.9,0-1.6-0.7-1.6-1.6l0-2.6c0-0.9,0.7-1.6,1.6-1.6l28,0.1c0.9,0,1.6,0.7,1.6,1.6
			l0,2.6C239.7,193.6,239,194.3,238.1,194.3z"/>
	</g>
	<g>
		<path class="st2" d="M238,200.9l-28-0.1c-0.9,0-1.6-0.7-1.6-1.6l0-2.6c0-0.9,0.7-1.6,1.6-1.6l28,0.1c0.9,0,1.6,0.7,1.6,1.6l0,2.6
			C239.7,200.2,238.9,200.9,238,200.9z"/>
	</g>
	<g>
		<path class="st2" d="M238,207.5l-28-0.1c-0.9,0-1.6-0.7-1.6-1.6l0-2.6c0-0.9,0.7-1.6,1.6-1.6l28,0.1c0.9,0,1.6,0.7,1.6,1.6l0,2.6
			C239.6,206.7,238.9,207.5,238,207.5z"/>
	</g>
	<path class="st3" d="M155.2,187.4l-1.7,0c-1.6,0-3-1.4-3-3l0.1-14.4c0-1.6,1.4-3,3-3l1.7,0c1.6,0,3,1.4,3,3l-0.1,14.4
		C158.2,186.1,156.9,187.4,155.2,187.4z"/>
	<path class="st3" d="M190.1,187.6l-1.7,0c-1.6,0-3-1.4-3-3l0.1-14.4c0-1.6,1.4-3,3-3l1.7,0c1.6,0,3,1.4,3,3l-0.1,14.4
		C193.1,186.2,191.7,187.6,190.1,187.6z"/>
	<path class="st3" d="M181.2,187.5l-1.7,0c-1.6,0-3-1.4-3-3l0.1-14.4c0-1.6,1.4-3,3-3l1.7,0c1.6,0,3,1.4,3,3l-0.1,14.4
		C184.2,186.2,182.8,187.5,181.2,187.5z"/>
	<path class="st3" d="M164.1,187.5l-1.7,0c-1.6,0-3-1.4-3-3l0.1-14.4c0-1.6,1.4-3,3-3l1.7,0c1.6,0,3,1.4,3,3l-0.1,14.4
		C167.1,186.1,165.8,187.5,164.1,187.5z"/>
	<path class="st1" d="M139.6,140.2l31.6-24.6c0.2-0.2,0.5-0.2,0.7,0l8,5.4c0.6,0.4,1.3-0.4,1.4-1.7l0-5.8c0-1,0.5-1.8,1-1.8l7.3,0
		c0.5,0,1,0.8,1,1.8l-0.1,13.8c0,0.7,0.2,1.4,0.6,1.6l11.7,9.3c0.4,0.3,0.6,0.9,0.6,1.6l0,8c0,1,0.4,1.8,1,1.8l45.4,0.2
		c0.5,0,1,0.8,1,1.8l0,1.5c0,1-0.5,1.8-1,1.8l-47.5-0.2c-0.5,0-1-0.8-1-1.8l0-9.4c0-0.7-0.2-1.4-0.6-1.7l-28.9-21.3
		c-0.2-0.2-0.5-0.2-0.8,0l-30.8,24c-0.7,0.5-1.4-0.4-1.4-1.6l0-1.2C139,141.2,139.2,140.5,139.6,140.2z"/>
	<path class="st1" d="M145.1,145.1l26-20c0.3-0.2,0.5-0.2,0.8,0l26.2,20.2L145.1,145.1z"/>
	<path class="st1" d="M139.2,150.3l-3.3,0l-1.3,0c-0.5,0-1-0.5-1-1.1l0,0c0-0.6,0.4-1.1,1-1.1l4.5,0c0.5,0,1,0.5,1,1.1v0
		C140.1,149.8,139.7,150.3,139.2,150.3z"/>
	<path class="st1" d="M136.7,155.9l4.8,3.2c0.3,0.2,0.5,0.6,0.5,1l-0.2,48.1c0,0.6,0.4,1.1,1,1.1h0c0.5,0,1-0.5,1-1.1l0.2-49.6
		c0-0.4-0.2-0.8-0.5-1l-4.8-3.2c-0.3-0.2-0.5-0.6-0.5-1l0-2.7c0-0.6-0.4-1.1-1-1.1l0,0c-0.5,0-1,0.5-1,1.1l0,4.2
		C136.2,155.3,136.4,155.7,136.7,155.9z"/>
	<g>
		<path class="st0" d="M155.2,187.4l-1.7,0c-1.6,0-3-1.4-3-3l0.1-14.4c0-1.6,1.4-3,3-3l1.7,0c1.6,0,3,1.4,3,3l-0.1,14.4
			C158.2,186.1,156.9,187.4,155.2,187.4z"/>
	</g>
	<path class="st1" d="M189.6,110.3l-7.4,0c-1.2,0-2.2-1-2.2-2.2l0,0c0-1.2,1-2.2,2.2-2.2l7.4,0c1.2,0,2.2,1,2.2,2.2l0,0
		C191.8,109.4,190.8,110.3,189.6,110.3z"/>
	<path class="st1" d="M145.4,150.5l-0.3,56.9c0,1,0.4,1.8,1,1.8l101.8-0.3c0.6,0,1-0.8,1-1.8l0.2-46.7c0-1-0.4-1.8-1-1.8l-49.9-0.2
		c-0.6,0-1-0.8-1-1.8l0-5.9c0-1-0.4-1.8-1-1.8l-49.9-0.2C145.9,148.8,145.4,149.6,145.4,150.5z"/>
	<g>
		<path class="st2" d="M238.1,181.2l-28-0.1c-0.9,0-1.6-0.7-1.6-1.6l0-2.6c0-0.9,0.7-1.6,1.6-1.6l28,0.1c0.9,0,1.6,0.7,1.6,1.6
			l0,2.6C239.7,180.5,239,181.2,238.1,181.2z"/>
	</g>
	<g>
		<path class="st2" d="M238.1,187.8l-28-0.1c-0.9,0-1.6-0.7-1.6-1.6l0-2.6c0-0.9,0.7-1.6,1.6-1.6l28,0.1c0.9,0,1.6,0.7,1.6,1.6
			l0,2.6C239.7,187.1,239,187.8,238.1,187.8z"/>
	</g>
	<g>
		<path class="st2" d="M238.1,194.3l-28-0.1c-0.9,0-1.6-0.7-1.6-1.6l0-2.6c0-0.9,0.7-1.6,1.6-1.6l28,0.1c0.9,0,1.6,0.7,1.6,1.6
			l0,2.6C239.7,193.6,239,194.3,238.1,194.3z"/>
	</g>
	<g>
		<path class="st2" d="M238,200.9l-28-0.1c-0.9,0-1.6-0.7-1.6-1.6l0-2.6c0-0.9,0.7-1.6,1.6-1.6l28,0.1c0.9,0,1.6,0.7,1.6,1.6l0,2.6
			C239.7,200.2,238.9,200.9,238,200.9z"/>
	</g>
	<g>
		<path class="st2" d="M238,207.5l-28-0.1c-0.9,0-1.6-0.7-1.6-1.6l0-2.6c0-0.9,0.7-1.6,1.6-1.6l28,0.1c0.9,0,1.6,0.7,1.6,1.6l0,2.6
			C239.6,206.7,238.9,207.5,238,207.5z"/>
	</g>
	<path class="st3" d="M155.2,187.4l-1.7,0c-1.6,0-3-1.4-3-3l0.1-14.4c0-1.6,1.4-3,3-3l1.7,0c1.6,0,3,1.4,3,3l-0.1,14.4
		C158.2,186.1,156.9,187.4,155.2,187.4z"/>
	<path class="st3" d="M190.1,187.6l-1.7,0c-1.6,0-3-1.4-3-3l0.1-14.4c0-1.6,1.4-3,3-3l1.7,0c1.6,0,3,1.4,3,3l-0.1,14.4
		C193.1,186.2,191.7,187.6,190.1,187.6z"/>
	<path class="st3" d="M181.2,187.5l-1.7,0c-1.6,0-3-1.4-3-3l0.1-14.4c0-1.6,1.4-3,3-3l1.7,0c1.6,0,3,1.4,3,3l-0.1,14.4
		C184.2,186.2,182.8,187.5,181.2,187.5z"/>
	<path class="st3" d="M164.1,187.5l-1.7,0c-1.6,0-3-1.4-3-3l0.1-14.4c0-1.6,1.4-3,3-3l1.7,0c1.6,0,3,1.4,3,3l-0.1,14.4
		C167.1,186.1,165.8,187.5,164.1,187.5z"/>
	<path class="st1" d="M139.6,140.2l31.6-24.6c0.2-0.2,0.5-0.2,0.7,0l8,5.4c0.6,0.4,1.3-0.4,1.4-1.7l0-5.8c0-1,0.5-1.8,1-1.8l7.3,0
		c0.5,0,1,0.8,1,1.8l-0.1,13.8c0,0.7,0.2,1.4,0.6,1.6l11.7,9.3c0.4,0.3,0.6,0.9,0.6,1.6l0,8c0,1,0.4,1.8,1,1.8l45.4,0.2
		c0.5,0,1,0.8,1,1.8l0,1.5c0,1-0.5,1.8-1,1.8l-47.5-0.2c-0.5,0-1-0.8-1-1.8l0-9.4c0-0.7-0.2-1.4-0.6-1.7l-28.9-21.3
		c-0.2-0.2-0.5-0.2-0.8,0l-30.8,24c-0.7,0.5-1.4-0.4-1.4-1.6l0-1.2C139,141.2,139.2,140.5,139.6,140.2z"/>
	<path class="st1" d="M145.1,145.1l26-20c0.3-0.2,0.5-0.2,0.8,0l26.2,20.2L145.1,145.1z"/>
	<path class="st1" d="M139.2,150.3l-3.3,0l-1.3,0c-0.5,0-1-0.5-1-1.1l0,0c0-0.6,0.4-1.1,1-1.1l4.5,0c0.5,0,1,0.5,1,1.1v0
		C140.1,149.8,139.7,150.3,139.2,150.3z"/>
	<path class="st1" d="M136.7,155.9l4.8,3.2c0.3,0.2,0.5,0.6,0.5,1l-0.2,48.1c0,0.6,0.4,1.1,1,1.1h0c0.5,0,1-0.5,1-1.1l0.2-49.6
		c0-0.4-0.2-0.8-0.5-1l-4.8-3.2c-0.3-0.2-0.5-0.6-0.5-1l0-2.7c0-0.6-0.4-1.1-1-1.1l0,0c-0.5,0-1,0.5-1,1.1l0,4.2
		C136.2,155.3,136.4,155.7,136.7,155.9z"/>
</g>
<path class="st1" d="M162.4,223.8"/>
<g>
	
		<ellipse transform="matrix(4.452709e-03 -1 1 4.452709e-03 81.8933 432.943)" class="st1" cx="258.4" cy="175.3" rx="6.6" ry="8.6"/>
	
		<ellipse transform="matrix(4.452709e-03 -1 1 4.452709e-03 104.1249 435.5769)" class="st1" cx="270.8" cy="165.5" rx="9.9" ry="12.9"/>
	
		<ellipse transform="matrix(4.452709e-03 -1 1 4.452709e-03 97.4161 447.2783)" class="st1" cx="273.3" cy="174.7" rx="9.4" ry="12.2"/>
	
		<ellipse transform="matrix(4.452709e-03 -1 1 4.452709e-03 118.2341 459.4557)" class="st1" cx="289.9" cy="170.3" rx="9.9" ry="12.9"/>
</g>
<rect x="273.1" y="175.1" transform="matrix(1 4.452709e-03 -4.452709e-03 1 0.861 -1.2332)" class="st1" width="8.5" height="35.2"/>
<path class="st1" d="M311.9,236.1l-267.1-1.2c-0.8,0-1.5-0.7-1.5-1.5l0.1-18.8c0-0.9,0.7-1.6,1.6-1.6l267,1.2c0.8,0,1.5,0.7,1.5,1.5
	l-0.1,18.9C313.4,235.4,312.7,236.1,311.9,236.1z"/>
<polyline class="st4" points="45,235 313,235 360,276 360,360 158,360 "/>
</svg>
